<svg version="1.1" id="pUZI-hidden" xmlns="http://www.w3.org/2000/svg" x="0" y="0" viewBox="0 0 1009.5 934" style="enable-background:new 0 0 1009.5 934" xml:space="preserve"><style>.st1{fill:#fff}</style><path d="M899.72 934h-725.5c-57.58 0-104.25-46.67-104.25-104.25v-725.5C69.97 46.67 116.64 0 174.22 0h725.5c57.58 0 104.25 46.67 104.25 104.25v725.5c0 57.58-46.67 104.25-104.25 104.25z" style="fill:#1d71b8"/><path class="st1" d="M560.07 659.07c0 23.33-2.84 44.21-8.53 62.63-5.69 18.43-14.06 34.01-25.1 46.75-11.05 12.74-24.7 22.45-40.95 29.11-16.25 6.66-34.94 10-56.06 10-19.83 0-37.62-2.99-53.38-8.97-15.76-5.98-29.09-15.04-39.97-27.2-10.89-12.15-19.22-27.29-24.98-45.43-5.77-18.13-8.65-39.35-8.65-63.66V430.9c0-1.96.49-3.72 1.46-5.29.97-1.57 2.72-2.84 5.24-3.82s5.81-1.76 9.87-2.35c4.06-.59 9.26-.88 15.6-.88 6.17 0 11.29.29 15.35.88 4.06.59 7.31 1.37 9.75 2.35 2.44.98 4.18 2.26 5.24 3.82 1.05 1.57 1.58 3.34 1.58 5.29v224.64c0 15.1 1.54 28.18 4.63 39.25 3.08 11.08 7.51 20.24 13.28 27.49s12.67 12.69 20.72 16.32c8.04 3.63 17.02 5.44 26.93 5.44 10.07 0 19.09-1.86 27.05-5.59 7.96-3.72 14.7-9.16 20.23-16.32 5.52-7.15 9.79-15.97 12.8-26.46 3-10.48 4.51-22.39 4.51-35.72V430.9c0-1.96.49-3.72 1.46-5.29.97-1.57 2.68-2.84 5.12-3.82s5.73-1.76 9.87-2.35c4.14-.59 9.3-.88 15.48-.88 6.17 0 11.25.29 15.23.88 3.98.59 7.19 1.37 9.63 2.35 2.44.98 4.14 2.26 5.12 3.82.97 1.57 1.46 3.34 1.46 5.29v228.17zM233.89 662.66c-15.88 0-27.35 7.04-34.58 18.9h-.4l-.8-16.69h-15.88c.4 9.25.8 19.3.8 31.77v72.79h-.1c-.05 6.25.18 8.42.01 12.91-.21 5.44-.55 10.94-.02 16.33.03.3.08.6.12.9V802h.41c1.82 8.36 7.24 14.23 15.33 17.77 4.39 1.92 9.17-.06 11.33-4.23 2.23-4.31 1.16-9.88-3.2-12.03-5.13-2.53-5.97-6.45-5.97-11.55 0-5.62-.19-11.25-.41-16.93v-25.91h.4c5.83 9.65 17.09 15.28 29.96 15.28 22.92 0 44.23-17.29 44.23-52.28-.01-29.56-17.71-49.46-41.23-49.46zm-6.03 87.86c-12.67 0-23.32-8.44-26.54-20.71-.4-2.21-.8-4.62-.8-7.24v-16.69c0-2.41.6-5.03 1.21-7.24 3.42-13.27 14.68-21.92 26.74-21.92 18.7 0 28.95 16.69 28.95 36.19-.01 22.33-10.87 37.61-29.56 37.61zM896.28 788.56c0 1.94-.53 3.69-1.58 5.24-1.06 1.56-2.8 2.82-5.24 3.79-2.44.97-5.69 1.75-9.75 2.33-4.06.58-9.26.87-15.6.87-6.18 0-11.33-.29-15.48-.87-4.14-.58-7.43-1.36-9.87-2.33-2.44-.97-4.19-2.23-5.24-3.79-1.06-1.55-1.58-3.3-1.58-5.24v-356c0-1.94.53-3.69 1.58-5.24 1.05-1.55 2.84-2.81 5.36-3.79 2.52-.97 5.81-1.75 9.87-2.33 4.06-.58 9.18-.87 15.35-.87 6.34 0 11.53.29 15.6.87 4.06.58 7.31 1.36 9.75 2.33 2.44.97 4.18 2.24 5.24 3.79 1.06 1.56 1.58 3.3 1.58 5.24v356z"/><path class="st1" d="M949.38 743.32c-3.81-11.44-12.87-18.42-24.48-18.59-11.62-.17-23.46 1.95-34.88 4.53-16.37 3.69-32.21 9.92-48.67 12.95-13.24 2.44-26.41 3.87-39.51 4.44-30 1.32-59.65-1.87-88.96-7.89-14.89-3.06-29.69-6.84-44.42-11.13l114.59-219.68c2.76-5.29 5.03-9.85 6.82-13.67 1.79-3.82 3.21-7.54 4.26-11.17a63.07 63.07 0 0 0 2.19-11.17c.4-3.82.61-8.38.61-13.67v-14.41c0-7.45-1.59-13.23-4.75-17.35-3.17-4.12-8.08-6.17-14.75-6.17H603.17c-1.95 0-3.62.49-5 1.47s-2.52 2.7-3.41 5.15c-.9 2.45-1.55 5.69-1.95 9.7-.41 4.02-.61 8.97-.61 14.85 0 5.49.2 10.19.61 14.11.4 3.92 1.06 7.06 1.95 9.41.89 2.35 2.03 4.07 3.41 5.15 1.38 1.08 3.05 1.62 5 1.62h121.37L602.2 715.82c-2.76 5.49-5.08 10.19-6.95 14.11s-3.29 7.55-4.26 10.88c-.98 3.34-1.67 6.62-2.07 9.85-.41 3.23-.61 6.81-.61 10.73v12.94c0 8.63 1.74 15.19 5.24 19.7 3.49 4.51 8.49 6.76 14.99 6.76h45.82l.1 1.18c1.03.33 2.06.67 3.09 1 85.58 27.82 169.69 23.76 252.05-12.29 10.75-4.71 21.15-10.94 30.41-18.14 9.07-7.06 13.25-17.56 9.37-29.22z"/><path d="M281.11 155.38c6.32 11.84 9.77 26.06 11.17 39.52 3.81 36.49 3.37 73.57 9.24 109.66 4.64 28.49 27.42 38.33 51.33 22.17 20.87-14.11 37.48-34.28 57.67-49.53 7.69-5.81 21.18-9.72 30.04-7.28 63.86 17.61 127.49 19 190.65-.84 14.76-4.64 23.3-1.35 33.07 8.09 16.15 15.6 31.97 31.82 49.78 45.35 30.75 23.35 52.53 16.3 58.82-21.15 5.92-35.22 5.17-71.51 8.88-107.18 1.4-13.43 4.86-27.59 11.15-39.42C820.26 103.48 833.76 51.65 826.49 0H247.66c-7.26 51.81 5.94 103.85 33.45 155.38z"/></svg>