<?xml version="1.0" encoding="utf-8"?>
<!-- Generator: Adobe Illustrator 24.1.1, SVG Export Plug-In . SVG Version: 6.00 Build 0)  -->
<svg version="1.1" id="Laag_1" xmlns="http://www.w3.org/2000/svg" xmlns:xlink="http://www.w3.org/1999/xlink" x="0px" y="0px"
	 viewBox="0 0 1009.5 934" style="enable-background:new 0 0 1009.5 934;" xml:space="preserve">
<style type="text/css">
	.st0{fill:#1D71B8;}
	.st1{fill:#FFFFFF;}
	.st2{fill:none;}
</style>
<path class="st0" d="M899.72,934h-725.5c-57.58,0-104.25-46.67-104.25-104.25v-725.5C69.97,46.67,116.64,0,174.22,0h725.5
	c57.58,0,104.25,46.67,104.25,104.25v725.5C1003.97,887.33,957.3,934,899.72,934z"/>
<path class="st1" d="M560.07,659.07c0,23.33-2.84,44.21-8.53,62.63c-5.69,18.43-14.06,34.01-25.1,46.75
	c-11.05,12.74-24.7,22.45-40.95,29.11c-16.25,6.66-34.94,10-56.06,10c-19.83,0-37.62-2.99-53.38-8.97
	c-15.76-5.98-29.09-15.04-39.97-27.2c-10.89-12.15-19.22-27.29-24.98-45.43c-5.77-18.13-8.65-39.35-8.65-63.66V430.9
	c0-1.96,0.49-3.72,1.46-5.29c0.97-1.57,2.72-2.84,5.24-3.82c2.52-0.98,5.81-1.76,9.87-2.35c4.06-0.59,9.26-0.88,15.6-0.88
	c6.17,0,11.29,0.29,15.35,0.88c4.06,0.59,7.31,1.37,9.75,2.35c2.44,0.98,4.18,2.26,5.24,3.82c1.05,1.57,1.58,3.34,1.58,5.29v224.64
	c0,15.1,1.54,28.18,4.63,39.25c3.08,11.08,7.51,20.24,13.28,27.49c5.77,7.25,12.67,12.69,20.72,16.32
	c8.04,3.63,17.02,5.44,26.93,5.44c10.07,0,19.09-1.86,27.05-5.59c7.96-3.72,14.7-9.16,20.23-16.32c5.52-7.15,9.79-15.97,12.8-26.46
	c3-10.48,4.51-22.39,4.51-35.72V430.9c0-1.96,0.49-3.72,1.46-5.29c0.97-1.57,2.68-2.84,5.12-3.82c2.44-0.98,5.73-1.76,9.87-2.35
	c4.14-0.59,9.3-0.88,15.48-0.88c6.17,0,11.25,0.29,15.23,0.88c3.98,0.59,7.19,1.37,9.63,2.35c2.44,0.98,4.14,2.26,5.12,3.82
	c0.97,1.57,1.46,3.34,1.46,5.29V659.07z"/>
<path class="st1" d="M233.89,662.66c-15.88,0-27.35,7.04-34.58,18.9h-0.4l-0.8-16.69h-15.88c0.4,9.25,0.8,19.3,0.8,31.77v72.79
	l-0.1,0c-0.05,6.25,0.18,8.42,0.01,12.91c-0.21,5.44-0.55,10.94-0.02,16.33c0.03,0.3,0.08,0.6,0.12,0.9V802h0.41
	c1.82,8.36,7.24,14.23,15.33,17.77c4.39,1.92,9.17-0.06,11.33-4.23c2.23-4.31,1.16-9.88-3.2-12.03c-5.13-2.53-5.97-6.45-5.97-11.55
	c0-5.62-0.19-11.25-0.41-16.93v-25.91h0.4c5.83,9.65,17.09,15.28,29.96,15.28c22.92,0,44.23-17.29,44.23-52.28
	C275.11,682.56,257.41,662.66,233.89,662.66z M227.86,750.52c-12.67,0-23.32-8.44-26.54-20.71c-0.4-2.21-0.8-4.62-0.8-7.24v-16.69
	c0-2.41,0.6-5.03,1.21-7.24c3.42-13.27,14.68-21.92,26.74-21.92c18.7,0,28.95,16.69,28.95,36.19
	C257.41,735.24,246.55,750.52,227.86,750.52z"/>
<g>
	<path class="st1" d="M896.28,788.56c0,1.94-0.53,3.69-1.58,5.24c-1.06,1.56-2.8,2.82-5.24,3.79c-2.44,0.97-5.69,1.75-9.75,2.33
		c-4.06,0.58-9.26,0.87-15.6,0.87c-6.18,0-11.33-0.29-15.48-0.87c-4.14-0.58-7.43-1.36-9.87-2.33c-2.44-0.97-4.19-2.23-5.24-3.79
		c-1.06-1.55-1.58-3.3-1.58-5.24v-356c0-1.94,0.53-3.69,1.58-5.24c1.05-1.55,2.84-2.81,5.36-3.79c2.52-0.97,5.81-1.75,9.87-2.33
		c4.06-0.58,9.18-0.87,15.35-0.87c6.34,0,11.53,0.29,15.6,0.87c4.06,0.58,7.31,1.36,9.75,2.33c2.44,0.97,4.18,2.24,5.24,3.79
		c1.06,1.56,1.58,3.3,1.58,5.24V788.56z"/>
</g>
<path class="st1" d="M949.38,743.32c-3.81-11.44-12.87-18.42-24.48-18.59c-11.62-0.17-23.46,1.95-34.88,4.53
	c-16.37,3.69-32.21,9.92-48.67,12.95c-13.24,2.44-26.41,3.87-39.51,4.44c-30,1.32-59.65-1.87-88.96-7.89
	c-14.89-3.06-29.69-6.84-44.42-11.13l114.59-219.68c2.76-5.29,5.03-9.85,6.82-13.67c1.79-3.82,3.21-7.54,4.26-11.17
	c1.06-3.62,1.79-7.35,2.19-11.17c0.4-3.82,0.61-8.38,0.61-13.67v-14.41c0-7.45-1.59-13.23-4.75-17.35
	c-3.17-4.12-8.08-6.17-14.75-6.17H603.17c-1.95,0-3.62,0.49-5,1.47c-1.38,0.98-2.52,2.7-3.41,5.15c-0.9,2.45-1.55,5.69-1.95,9.7
	c-0.41,4.02-0.61,8.97-0.61,14.85c0,5.49,0.2,10.19,0.61,14.11c0.4,3.92,1.06,7.06,1.95,9.41c0.89,2.35,2.03,4.07,3.41,5.15
	c1.38,1.08,3.05,1.62,5,1.62h121.37L602.2,715.82c-2.76,5.49-5.08,10.19-6.95,14.11c-1.87,3.92-3.29,7.55-4.26,10.88
	c-0.98,3.34-1.67,6.62-2.07,9.85c-0.41,3.23-0.61,6.81-0.61,10.73v12.94c0,8.63,1.74,15.19,5.24,19.7
	c3.49,4.51,8.49,6.76,14.99,6.76h45.82l0.1,1.18c1.03,0.33,2.06,0.67,3.09,1c85.58,27.82,169.69,23.76,252.05-12.29
	c10.75-4.71,21.15-10.94,30.41-18.14C949.08,765.48,953.26,754.98,949.38,743.32z"/>
<g>
	<path d="M281.11,155.38c6.32,11.84,9.77,26.06,11.17,39.52c3.81,36.49,3.37,73.57,9.24,109.66c4.64,28.49,27.42,38.33,51.33,22.17
		c20.87-14.11,37.48-34.28,57.67-49.53c7.69-5.81,21.18-9.72,30.04-7.28c63.86,17.61,127.49,19,190.65-0.84
		c14.76-4.64,23.3-1.35,33.07,8.09c16.15,15.6,31.97,31.82,49.78,45.35c30.75,23.35,52.53,16.3,58.82-21.15
		c5.92-35.22,5.17-71.51,8.88-107.18c1.4-13.43,4.86-27.59,11.15-39.42C820.26,103.48,833.76,51.65,826.49,0H247.66
		C240.4,51.81,253.6,103.85,281.11,155.38z"/>
</g>
</svg>
