<svg version="1.1" id="pUZI" xmlns="http://www.w3.org/2000/svg" x="0" y="0" viewBox="0 0 1169.2 934" style="enable-background:new 0 0 1169.2 934" xml:space="preserve"><style>.st1{fill:#fff}.st2{fill:none}</style><path d="M889.97 934h-725.5c-57.58 0-104.25-46.67-104.25-104.25v-725.5C60.22 46.67 106.9 0 164.47 0h725.5c57.58 0 104.25 46.67 104.25 104.25v725.5c0 57.58-46.67 104.25-104.25 104.25z" style="fill:#1d71b8"/><path class="st2" d="M214.09 570.68c-3.54 3.71-6.27 8.43-7.68 13.93-.63 2.3-1.26 5.03-1.26 7.54v17.38c0 2.72.42 5.23.84 7.54.74 2.82 1.88 5.43 3.31 7.81-1.15-18.39.54-36.67 4.79-54.2zM373.79 688.59c-15.76-5.98-29.09-15.04-39.97-27.2-10.89-12.15-19.22-27.29-24.98-45.43-5.77-18.13-8.65-39.35-8.65-63.66v-32.23c-12.4 12-22.25 26.33-29.05 41.98 7.32 8.99 11.7 21.59 11.7 36.59 0 21.38-7.65 36.4-18.78 45.17.72 2.88 1.54 5.76 2.48 8.62 16.75 51.17 52.98 80.26 105.42 89.62 15.76 2.82 28.85-3.26 39.11-15.29 7.46-8.75 12.82-18.67 16.55-29.22h-.44c-19.84.02-37.64-2.97-53.39-8.95zM660.88 569c-.12 1.37-.29 3.4-.48 5.63l-5.9-1.43c3.9 4.34 6.65 7.39 10.97 12.2-1.11-4.07-1.6-5.86-2.29-8.38 2.9.52 4.84.86 6.35 1.13-3.1-3.28-5.99-6.34-8.65-9.15zM263.05 587.4a127.071 127.071 0 0 0-2.52 33.09c2.54-5.91 3.88-13.03 3.88-21.01 0-4.2-.47-8.26-1.36-12.08z"/><path class="st1" d="M557.8 384.81v-63.9c0-1.96-.49-3.72-1.46-5.29-.97-1.57-2.68-2.84-5.12-3.82s-5.65-1.76-9.63-2.35c-3.98-.59-9.06-.88-15.23-.88-6.18 0-11.33.29-15.48.88-4.14.59-7.43 1.37-9.87 2.35-2.44.98-4.14 2.26-5.12 3.82-.97 1.57-1.46 3.34-1.46 5.29v141.6c8.8-15.59 19.02-30.54 30.98-44.72a306.873 306.873 0 0 1 32.39-32.98z"/><path d="M392.57 483.32c3.43-.16 8.19-2.39 9.6-5.09 1.04-2-1.46-7.48-3.94-9.37-6.5-4.94-13.38-10.04-20.94-12.81-4.37-1.61-8.71-2.92-13.01-3.95v34.46c9.27-1.85 18.71-2.8 28.29-3.24zM280.86 469.85c-28.28 20.33-49.27 49.21-61.06 81.83-2.24 6.21-4.14 12.55-5.71 19-4.25 17.53-5.94 35.81-4.79 54.2 5.06 8.4 14.05 13.76 24.33 13.76 12.78 0 22.04-6.86 26.9-18.14-.62-11.18.26-22.3 2.52-33.09 1.82-8.71 4.54-17.21 8.08-25.35 6.81-15.65 16.66-29.98 29.05-41.98v-61.61c-6.58 3.05-13.02 6.85-19.32 11.38z"/><path d="M859.97 748.79c-5.57-9.71-10.27-20.92-11.51-31.89-2.4-21.22-2.64-42.74-2.78-64.14-.25-39.49.06-78.99.43-118.49.54-56.29 1.74-112.57 1.86-168.85.05-23.51-7.58-44.72-22.24-63.79-8.33-10.84-14.54-23.53-20.4-36-7.9-16.82-14.39-34.29-21.76-51.37-7.7-17.84-15.59-35.61-23.63-53.3-12.01-26.44-23.88-52.97-36.56-79.08-3.65-7.52-9.33-14.33-15.13-20.46-6.64-7.02-12.06-5.29-15.31 3.94-1.28 3.64-2.12 7.43-3.06 10.81-9.26-3.91-17.59-8.22-26.41-10.95-9.45-2.92-13.58 1.15-12.79 10.92.54 6.65 1.11 13.29 1.47 19.95.35 6.32-2.15 9.69-9.12 10.33-6.57.6-13.13 2.38-19.45 4.4-16.96 5.43-28.55 17.12-36.69 32.62-6.87 13.08-14.66 24.57-28.71 32.16-6.46 3.49-14.4 11.76-11.59 22.75 2.3 9.01 4.33 18.1 6.66 27.1 4.8 18.52 17.31 27.93 35.87 30.42 14.27 1.92 28.55 3.94 42.72 6.48 9.67 1.73 14.48 6.56 14.31 16.39-.49 28.15-7.78 53.11-34.69 68.22-19.32 10.85-37.23 23.46-53.66 37.86a307.814 307.814 0 0 0-32.39 32.98c-11.96 14.18-22.18 29.13-30.98 44.72-20.64 36.57-33.38 76.67-41.91 118.64-3.51 17.27-6.91 34.58-10.38 51.86-3.4 16.96-6.88 33.9-10.62 50.78-1.03 4.67-2.33 9.27-3.92 13.76-3.73 10.55-9.08 20.47-16.55 29.22-10.26 12.03-23.35 18.1-39.11 15.29-52.44-9.37-88.66-38.45-105.42-89.62-.94-2.86-1.76-5.74-2.48-8.62-7.84 6.18-17.42 9.26-27.28 9.26-9.83 0-18.74-3.16-25.2-8.81 4.82 27.91 16.39 55.5 35.67 80.43 35.8 46.29 84.3 69.76 142.83 70.15 95.29.62 190.59.18 285.89.17 28.56 0 57.13.16 85.68-.18 7.35-.09 16.09-.36 18.98-8.88 2.89-8.54-3.45-14.88-9.82-18.3-13.32-7.13-26.99-14.67-41.46-18.34-16.09-4.08-33.22-4.06-49.91-5.77-2.66-.27-5.34-.27-8.02-.4 44.61-22.52 85.22-48.84 114.26-90.26 2.4 20.62 4.71 40.39 7 60.17.84 7.26 2.31 14.52 2.29 21.78-.05 18.02 5.05 34.66 12.49 50.71 3.04 6.56 8.24 10.02 16.02 9.58 7.98-.46 16.02-.29 24.02-.05 6.73.2 11.6-2.63 13.88-8.7 4.75-12.63 5.97-24.75-1.39-37.6zM665.48 585.4c-4.32-4.81-7.07-7.86-10.97-12.2 2.92.71 4.21 1.02 5.9 1.43.19-2.24.37-4.27.48-5.63 2.66 2.81 5.55 5.87 8.65 9.15-1.51-.27-3.46-.62-6.35-1.13.68 2.52 1.17 4.31 2.29 8.38z"/><path class="st1" d="M429.84 634.05c-9.91 0-18.89-1.81-26.93-5.44-8.04-3.62-14.95-9.06-20.72-16.32-5.77-7.25-10.2-16.42-13.28-27.49-3.09-11.07-4.63-24.16-4.63-39.25V320.9c0-1.96-.53-3.72-1.58-5.29-1.06-1.57-2.8-2.84-5.24-3.82-2.44-.98-5.69-1.76-9.75-2.35-4.06-.59-9.18-.88-15.35-.88-6.34 0-11.54.29-15.6.88-4.06.59-7.35 1.37-9.87 2.35-2.52.98-4.26 2.26-5.24 3.82-.97 1.57-1.46 3.34-1.46 5.29v231.4c0 24.31 2.88 45.53 8.65 63.66 5.77 18.13 14.09 33.28 24.98 45.43 10.88 12.16 24.21 21.22 39.97 27.2 15.76 5.98 33.55 8.97 53.38 8.97h.44c1.59-4.49 2.88-9.08 3.92-13.76 3.74-16.88 7.21-33.83 10.62-50.78-3.92.67-8.01 1.03-12.31 1.03zM186.83 661.83c-.02.41-.03.82-.05 1.23-.23 5.91-.43 11.77-.43 17.62 0 5.31-.87 9.39-6.21 12.03-4.54 2.24-5.65 8.04-3.33 12.53 2.25 4.34 7.22 6.4 11.8 4.4 8.42-3.69 14.07-9.8 15.96-18.51.18-.82.32-1.67.43-2.53l.08-23.11c.05 1.34.02-2.67.07-1.34v-26.99h.42c1.62 2.68 3.65 5.05 6 7.11 6.46 5.64 15.37 8.81 25.2 8.81 9.86 0 19.44-3.08 27.28-9.26 11.14-8.77 18.78-23.8 18.78-45.17 0-15-4.38-27.6-11.7-36.59-3.54 8.14-6.26 16.64-8.08 25.35.89 3.82 1.36 7.88 1.36 12.08 0 7.99-1.34 15.11-3.88 21.01-4.86 11.28-14.12 18.14-26.9 18.14-10.28 0-19.27-5.35-24.33-13.76a29.867 29.867 0 0 1-3.31-7.81c-.42-2.3-.84-4.82-.84-7.54v-17.38c0-2.51.63-5.23 1.26-7.54 1.42-5.5 4.14-10.22 7.68-13.93 1.56-6.45 3.46-12.79 5.71-19-6.58 3.38-11.88 8.53-15.91 15.13h-.42l-.84-17.38H186.1c.42 9.63.84 20.1.84 33.08"/><path class="st1" d="M186.85 662.31c-.02.41-.03.82-.05 1.23-.23 5.91-.43 11.77-.43 17.62 0 5.31-.87 9.39-6.21 12.03-4.54 2.24-5.65 8.04-3.33 12.53 2.25 4.34 7.22 6.4 11.8 4.4 8.42-3.69 14.07-9.8 15.96-18.51.18-.82.32-1.67.43-2.53l.08-23.11c.05 1.34.02-2.67.07-1.34v-26.99h.42c1.62 2.68 3.65 5.05 6 7.11 6.46 5.64 15.37 8.81 25.2 8.81 9.86 0 19.44-3.08 27.28-9.26 11.14-8.77 18.78-23.8 18.78-45.17 0-15-4.38-27.6-11.7-36.59-3.54 8.14-6.26 16.64-8.08 25.35.89 3.82 1.36 7.88 1.36 12.08 0 7.99-1.34 15.11-3.88 21.01-4.86 11.28-14.12 18.14-26.9 18.14-10.28 0-19.27-5.35-24.33-13.76a29.867 29.867 0 0 1-3.31-7.81c-.42-2.3-.84-4.82-.84-7.54v-17.38c0-2.51.63-5.23 1.26-7.54 1.42-5.5 4.14-10.22 7.68-13.93 1.56-6.45 3.46-12.79 5.71-19-6.58 3.38-11.88 8.53-15.91 15.13h-.42l-.84-17.38h-16.54c.42 9.63.84 20.1.84 33.08"/><g><path class="st1" d="M894 678.56c0 1.94-.53 3.69-1.58 5.24-1.06 1.56-2.8 2.82-5.24 3.79-2.44.97-5.69 1.75-9.75 2.33-4.06.58-9.26.87-15.6.87-6.18 0-11.33-.29-15.48-.87-4.14-.58-7.43-1.36-9.87-2.33-2.44-.97-4.19-2.23-5.24-3.79-1.06-1.55-1.58-3.3-1.58-5.24v-356c0-1.94.53-3.69 1.58-5.24 1.05-1.55 2.84-2.81 5.36-3.79 2.52-.97 5.81-1.75 9.87-2.33 4.06-.58 9.18-.87 15.35-.87 6.34 0 11.53.29 15.6.87 4.06.58 7.31 1.36 9.75 2.33 2.44.97 4.18 2.24 5.24 3.79 1.06 1.56 1.58 3.3 1.58 5.24v356z"/></g><path class="st1" d="M945.67 633.32c-3.81-11.44-12.87-18.42-24.48-18.59-11.62-.17-23.46 1.95-34.88 4.53-16.37 3.69-32.21 9.92-48.67 12.95-13.24 2.44-26.41 3.87-39.51 4.44-30 1.32-59.65-1.87-88.96-7.89-14.89-3.06-29.69-6.84-44.42-11.13l114.59-219.68c2.76-5.29 5.03-9.85 6.82-13.67 1.79-3.82 3.21-7.54 4.26-11.17a63.07 63.07 0 0 0 2.19-11.17c.4-3.82.61-8.38.61-13.67v-14.41c0-7.45-1.59-13.23-4.75-17.35-3.17-4.12-8.08-6.17-14.75-6.17H599.47c-1.95 0-3.62.49-5 1.47s-2.52 2.7-3.41 5.15c-.9 2.45-1.55 5.69-1.95 9.7-.41 4.02-.61 8.97-.61 14.85 0 5.49.2 10.19.61 14.11.4 3.92 1.06 7.06 1.95 9.41.89 2.35 2.03 4.07 3.41 5.15 1.38 1.08 3.05 1.62 5 1.62h121.37L598.49 605.82c-2.76 5.49-5.08 10.19-6.95 14.11s-3.29 7.55-4.26 10.88c-.98 3.34-1.67 6.62-2.07 9.85-.41 3.23-.61 6.81-.61 10.73v12.94c0 8.63 1.74 15.19 5.24 19.7 3.49 4.51 8.49 6.76 14.99 6.76h45.82l.1 1.18c1.03.33 2.06.67 3.09 1 85.58 27.82 169.69 23.76 252.05-12.29 10.75-4.71 21.15-10.94 30.41-18.14 9.07-7.06 13.26-17.56 9.37-29.22z"/></svg>